<svg xmlns="http://www.w3.org/2000/svg" width="1400" height="520" viewBox="0 0 1400 520">
<defs><linearGradient id="sky" x2="0" y2="1"><stop stop-color="#324e43"/><stop offset=".63" stop-color="#637a5c"/><stop offset="1" stop-color="#d0af70"/></linearGradient><linearGradient id="land" x2="0" y2="1"><stop stop-color="#46653e"/><stop offset="1" stop-color="#132f25"/></linearGradient><linearGradient id="row" x2="0" y2="1"><stop stop-color="#718c4c"/><stop offset="1" stop-color="#254b35"/></linearGradient><filter id="blur"><feGaussianBlur stdDeviation="18"/></filter></defs>
<rect width="1400" height="520" fill="url(#sky)"/><ellipse cx="1130" cy="147" rx="95" ry="40" fill="#ffe0a5" opacity=".5" filter="url(#blur)"/><circle cx="1130" cy="147" r="36" fill="#f5d59b" opacity=".7"/><path d="M0 246 C215 197 319 258 514 239 S830 207 1050 238 S1265 209 1400 220 V520 H0Z" fill="#39533e"/><path d="M0 293 C217 270 377 294 555 271 S902 249 1400 277 V520 H0Z" fill="url(#land)"/><path d="M0 520 L510 280 535 280 360 520Z" fill="url(#row)"/><path d="M116 520 L540 280 555 280 465 520Z" fill="#578047"/><path d="M300 520 L568 280 580 280 555 520Z" fill="#315b39"/><path d="M469 520 L594 280 604 280 645 520Z" fill="#678b49"/><path d="M620 520 L620 280 630 280 730 520Z" fill="#315d3b"/><path d="M770 520 L648 280 660 280 840 520Z" fill="#678b49"/><path d="M935 520 L685 280 700 280 1050 520Z" fill="#2e5737"/><path d="M1100 520 L724 280 744 280 1300 520Z" fill="#6d8e4b"/><path d="M1270 520 L770 280 800 280 1400 480 V520Z" fill="#315939"/><path d="M0 518 L480 283 M250 520 L555 282 M510 520 L600 283 M700 520 L632 283 M890 520 L675 283 M1070 520 L715 283 M1270 520 L760 283" stroke="#9daf69" stroke-width="3" opacity=".4" fill="none"/><path d="M0 258 C245 275 345 251 543 263 S955 243 1400 264" stroke="#bbd69d" stroke-width="3" opacity=".3" fill="none"/></svg>
